<?xml version="1.0" standalone="no"?>
<!DOCTYPE svg PUBLIC "-//W3C//DTD SVG 20010904//EN"
 "http://www.w3.org/TR/2001/REC-SVG-20010904/DTD/svg10.dtd">
<svg version="1.0" xmlns="http://www.w3.org/2000/svg"
 width="96.000000pt" height="96.000000pt" viewBox="0 0 96.000000 96.000000"
 preserveAspectRatio="xMidYMid meet">
<metadata>
Created by potrace 1.11, written by Peter Selinger 2001-2013
</metadata>
<g transform="translate(0.000000,96.000000) scale(0.100000,-0.100000)"
fill="#000000" stroke="none">
<path d="M0 480 l0 -480 480 0 480 0 0 480 0 480 -480 0 -480 0 0 -480z m876
445 c62 -26 64 -39 64 -445 0 -406 -2 -419 -64 -445 -52 -22 -730 -22 -782 0
-62 26 -64 39 -64 445 0 403 2 419 62 445 49 21 733 22 784 0z"/>
<path d="M77 892 l-27 -28 0 -386 0 -385 26 -27 27 -26 382 0 382 0 27 26 26
27 0 386 0 387 -28 27 -28 27 -380 0 -380 0 -27 -28z m360 -191 c41 -19 42
-19 95 1 70 27 171 21 217 -11 60 -43 66 -65 69 -283 l4 -198 -65 0 -64 0 -5
169 c-3 134 -8 174 -21 194 -19 29 -59 39 -99 25 l-28 -10 0 -189 0 -189 -65
0 -65 0 -1 153 c0 90 -5 166 -12 187 -14 42 -54 64 -97 55 l-30 -7 0 -194 0
-194 -70 0 -70 0 0 244 0 244 53 10 c93 17 207 14 254 -7z"/>
</g>
</svg>
